<svg xmlns="http://www.w3.org/2000/svg" viewBox="3.16 10.78 57.56 34.26">
    <defs>
        <linearGradient id="line" x1="87.629%" x2="9.97%" y1="28.473%" y2="86.882%">
            <stop offset="0%" stop-color="#fff" stop-opacity="1"/>
            <stop offset="100%" stop-color="#fff" stop-opacity="0.7"/>
        </linearGradient>
        <filter id="a" width="141.4%" height="141.4%" x="-20.7%" y="-20.7%" filterUnits="objectBoundingBox">
            <feGaussianBlur in="SourceGraphic" stdDeviation="0.4"/>
        </filter>
        <linearGradient id="stand" x1="1" x2="1" y1="0" y2="100%">
            <stop offset="0%" stop-color="#F1F5F9" stop-opacity="0.2"/>
            <stop offset="100%" stop-color="#d658af"/>
        </linearGradient>
    </defs>
    <g fill="#b168f7" filter="url(#a)">
        <path d="M11.5 10.94c.01 2.45 0 4.89-.04 7.32a8.44 8.44 0 0 0-2.42-1.32c-.03-1.3-.03-2.61 0-3.92.28-1 .9-1.7 1.86-2.1.2-.08.4-.1.6-.1Zm3.92 1.52c.03 4.56 0 9.1-.08 13.64a.62.62 0 0 0-.16-.1c-.46-.5-.93-.99-1.42-1.46.04-.37.06-.74.06-1.12a7.6 7.6 0 0 0-.62-2.88c-.03-3.24-.02-6.48.02-9.72.72 0 1.44 0 2.16.02.04.54.05 1.08.04 1.62Zm0 0"/>
        <path d="M19.34 17.9c.01 3.82 0 7.63-.04 11.44a4.85 4.85 0 0 1-1.08-.5l-1.06-.82c-.03-5.72-.03-11.44 0-17.16.72-.05 1.44-.05 2.16 0 .02 2.35.03 4.7.02 7.04Zm0 0"/>
        <path d="M21.06 10.82h2.16c.05 6.13.05 12.27.02 18.4a.88.88 0 0 1-.08.24c-.68.21-1.38.32-2.1.32Zm0 0"/>
        <path d="M24.98 10.82c.73-.01 1.46 0 2.18.04l.02 7.68c0 2.66-.01 5.3-.06 7.96-.23.27-.48.53-.74.78-.46.4-.91.8-1.36 1.22-.04-5.9-.05-11.79-.04-17.68Zm0 0"/>
        <path d="M28.9 10.82c.73-.01 1.46 0 2.18.04.03 3.88.03 7.76 0 11.64-.67.74-1.38 1.43-2.14 2.08-.04-4.58-.05-9.17-.04-13.76Zm0 0"/>
        <path d="M32.86 20.9c-.04-3.35-.05-6.71-.04-10.08.73-.05 1.45-.05 2.18 0 .03 2.93.03 5.87 0 8.8l-2.14 1.28Zm0 0"/>
        <path d="M36.74 10.82h2.2c0 2.52 0 5.04-.02 7.56a.58.58 0 0 1-.22.1c-.6.11-1.2.25-1.8.42h-.16Zm3.92 0c.73-.01 1.46 0 2.18.04.02 2.52.03 5.04.02 7.56l-2.2-.12Zm3.92 0h2.2c-.01 2.91 0 5.83.04 8.74l-.06.02-2.16-.84a668.5 668.5 0 0 1-.02-7.92Zm0 0"/>
        <path d="M50.7 21.54c.01.25 0 .49-.04.72a.96.96 0 0 1-.2-.1 63.4 63.4 0 0 0-1.94-1.58c-.03-3.25-.02-6.51.02-9.76.72-.01 1.43 0 2.14.04.02 3.56.03 7.12.02 10.68Zm4.16-8.48c0 4.45 0 8.9-.02 13.36a.23.23 0 0 1-.18-.04l-2.18-2.2-.04-.12c-.03-4.41-.03-8.83 0-13.24.2-.02.4.01.58.1.85.36 1.44.96 1.78 1.82.03.1.05.21.06.32Zm0 0"/>
    </g>
    <path fill="url(#line)"
          d="M56.02 30.1c.39-.03.77-.04 1.16-.04a3.91 3.91 0 0 1 3.5 3.08c.25 2.22-.65 3.74-2.7 4.58-2.25.53-3.85-.25-4.82-2.34a4 4 0 0 1-.14-2.36.48.48 0 0 0 .08-.28c.06-.25.13-.49.24-.72a2.31 2.31 0 0 0-.56-.58 219.2 219.2 0 0 0-6.08-6.12 9.16 9.16 0 0 0-6.64-2.08c-.1 0-.2.03-.28.06-1.6.21-3.02.82-4.28 1.82l-1.16 1.08a499.47 499.47 0 0 1-5.36 5.4 11.15 11.15 0 0 1-9.44 2.9.47.47 0 0 0-.28-.08c-1.6-.32-3.05-.97-4.36-1.94a14.8 14.8 0 0 0-.84-.72 475.35 475.35 0 0 1-4.84-4.88.26.26 0 0 0-.24-.04 3.59 3.59 0 0 1-3.84.04 4.06 4.06 0 0 1-1.94-4.02 4.08 4.08 0 0 1 2.46-3.1 3.94 3.94 0 0 1 4.94 5.46.27.27 0 0 0 .04.24c1.59 1.56 3.17 3.15 4.74 4.74a8.78 8.78 0 0 0 12.08 0c1.92-1.9 3.83-3.83 5.72-5.76 3-2.93 6.54-3.9 10.64-2.92 1.75.5 3.28 1.37 4.6 2.6a718.2 718.2 0 0 1 6.2 6.24c.08.07.17.11.26.14.36-.18.74-.32 1.14-.4Zm0 0"/>
    <g fill="url(#stand)">
        <path d="M41.46 26.1c1.2.1 2.26.52 3.2 1.26 1.75 1.71 3.5 3.44 5.22 5.18l.2.28c-.3 2.04.3 4.11 1.64 5.68a7.3 7.3 0 0 0 3.06 1.96l.06.12c.02.63.03 1.25.02 1.88a2.6 2.6 0 0 1-1.8 2.42c-.24.07-.47.13-.72.16-13.67-.02-27.33-.02-41 0a2.85 2.85 0 0 1-2.18-1.78 3.64 3.64 0 0 1-.14-.96c-.01-3.85 0-7.69.04-11.52a63.45 63.45 0 0 0 3.56 3.54 13.7 13.7 0 0 0 17.88-.28c2.23-2.24 4.47-4.47 6.72-6.68a5.94 5.94 0 0 1 1.8-.98c.18-.02.36-.08.52-.16a13.35 13.35 0 0 1 1.92-.12Zm0 0"/>
    </g>
</svg>
